<svg xmlns="http://www.w3.org/2000/svg" width="1200" height="720" viewBox="0 0 1200 720" role="img" aria-labelledby="title"><title id="title">Editorial illustration: studying an abstract chart with a notebook and magnifier</title><rect width="1200" height="720" fill="#e6eef2"/><circle cx="1050" cy="150" r="190" fill="#d8e4eb"/><circle cx="120" cy="650" r="210" fill="#dce8e5"/><rect x="165" y="128" width="670" height="463" rx="24" fill="#f9f8f2" transform="rotate(-4 500 360)"/><path d="M220 228H741 M220 314H741 M220 400H741 M220 486H741" stroke="#d8e2e7" stroke-width="4"/><path d="M225 409L310 345L398 383L470 269L560 310L638 405L727 355" fill="none" stroke="#325770" stroke-width="12" stroke-linecap="round" stroke-linejoin="round"/><rect x="191" y="178" width="26" height="345" rx="13" fill="#b0894a"/><circle cx="849" cy="360" r="115" fill="#d5e3ec" fill-opacity=".6" stroke="#325770" stroke-width="22"/><path d="M928 449L1022 565" stroke="#325770" stroke-width="40" stroke-linecap="round"/><path d="M811 370L841 323L873 355L899 337" fill="none" stroke="#b0894a" stroke-width="8"/><circle cx="294" cy="571" r="23" fill="#b0894a"/></svg>