<svg xmlns="http://www.w3.org/2000/svg" width="960" height="600" viewBox="0 0 960 600" role="img" aria-labelledby="title"><title id="title">Editorial illustration: microphone, headphones and course preparation notes</title><rect width="960" height="600" fill="#e5ece4"/><rect x="98" y="217" width="321" height="259" rx="15" fill="#f9f7ef" transform="rotate(-5 250 350)"/><g stroke="#c6d3c8" stroke-width="6" stroke-linecap="round"><path d="M149 290H354 M149 334H338 M149 378H358 M149 422H283"/></g><rect x="525" y="133" width="100" height="198" rx="50" fill="#496252"/><path d="M493 264V284Q493 371 575 371Q657 371 657 284V264 M575 371V438 M531 438H619" fill="none" stroke="#b48a4d" stroke-width="15" stroke-linecap="round"/><g stroke="#e5ece4" stroke-width="5"><path d="M548 177H602 M548 206H602 M548 235H602 M548 264H602"/></g><path d="M720 380V285Q720 200 806 200Q892 200 892 285V380" fill="none" stroke="#496252" stroke-width="21"/><rect x="704" y="294" width="42" height="112" rx="18" fill="#b48a4d"/><rect x="867" y="294" width="42" height="112" rx="18" fill="#b48a4d"/><path d="M147 165L279 142L287 168L154 191Z" fill="#b48a4d"/><path d="M147 165L154 191L121 188Z" fill="#2a3f34"/></svg>