<svg xmlns="http://www.w3.org/2000/svg" width="1200" height="720" viewBox="0 0 1200 720" role="img" aria-labelledby="title desc">
<title id="title">Coursera Plus: editorial illustration</title><desc id="desc">Original PokiSky illustration about professional learning. Not a product screenshot or official brand artwork.</desc>
<defs><linearGradient id="accent" x2="1" y2="1"><stop stop-color="#305c9a"/><stop offset="1" stop-color="#9cb9b0"/></linearGradient><pattern id="grid" width="48" height="48" patternUnits="userSpaceOnUse"><path d="M48 0H0v48" fill="none" stroke="#305c9a" stroke-opacity=".06"/></pattern></defs>
<rect width="1200" height="720" fill="#eaf0fb"/><rect width="1200" height="720" fill="url(#grid)"/><circle cx="873" cy="360" r="268" fill="#305c9a" opacity=".07"/>
<circle cx="84" cy="297" r="6" fill="#305c9a"/><path d="M107 297h80" stroke="#305c9a" stroke-width="2"/>
<text x="78" y="381" font-family="Arial, sans-serif" font-size="62" font-weight="700" letter-spacing="-2" fill="#305c9a">Coursera Plus</text>
<text x="81" y="426" font-family="Arial, sans-serif" font-size="20" letter-spacing="3" fill="#305c9a">PROFESSIONAL LEARNING</text>
<g style="--color:#305c9a;--soft:#eaf0fb;--gold:#d5b776" stroke="#305c9a" stroke-width="5" stroke-linecap="round" stroke-linejoin="round" fill="none"><rect x="685" y="188" width="356" height="340" rx="28" fill="white"/><path d="M735 253h255M735 294h190M735 349h255M735 389h170"/><circle cx="933" cy="457" r="54" fill="#d5b776" stroke="none"/><path d="m905 496-15 99 43-23 40 23-17-99" fill="#305c9a"/><path d="m908 458 18 18 32-38" stroke="white" stroke-width="10"/></g></svg>