<svg xmlns="http://www.w3.org/2000/svg" width="960" height="600" viewBox="0 0 960 600" role="img" aria-labelledby="title"><title id="title">Redaktionelle Illustration: eigene Übungsnotiz mit drei Schritten</title><rect width="960" height="600" fill="#e9edf0"/><circle cx="150" cy="490" r="190" fill="#d6dfe5"/><rect x="214" y="56" width="540" height="504" rx="20" fill="#fffdf6"/><rect x="242" y="45" width="32" height="45" rx="8" fill="#ac7b39"/><rect x="698" y="45" width="32" height="45" rx="8" fill="#ac7b39"/><text x="265" y="158" font-family="Arial,sans-serif" font-size="32" font-weight="700" fill="#243d51">MEIN ÜBUNGSMOMENT</text><circle cx="296" cy="230" r="25" fill="#e9edf0"/><text x="289" y="239" font-family="Arial,sans-serif" font-size="25" fill="#243d51">1</text><text x="345" y="240" font-family="Arial,sans-serif" font-size="28" fill="#243d51">Ansehen</text><path d="M345 260h320" stroke="#d6dfe5" stroke-width="2"/><circle cx="296" cy="330" r="25" fill="#e9edf0"/><text x="289" y="339" font-family="Arial,sans-serif" font-size="25" fill="#243d51">2</text><text x="345" y="340" font-family="Arial,sans-serif" font-size="28" fill="#243d51">Ausprobieren</text><path d="M345 360h320" stroke="#d6dfe5" stroke-width="2"/><circle cx="296" cy="430" r="25" fill="#e9edf0"/><text x="289" y="439" font-family="Arial,sans-serif" font-size="25" fill="#243d51">3</text><text x="345" y="440" font-family="Arial,sans-serif" font-size="28" fill="#243d51">Wiederholen</text><path d="M345 460h320" stroke="#d6dfe5" stroke-width="2"/><path d="M790 153l26 12-128 263-26-12z" fill="#ac7b39"/><path d="M662 416l26 12-35 28z" fill="#243d51"/></svg>
