<svg xmlns="http://www.w3.org/2000/svg" width="960" height="600" viewBox="0 0 960 600" role="img" aria-labelledby="title desc"><title id="title">Entwerfen, prüfen und weiterentwickeln</title><desc id="desc">Redaktionelle Illustration von PokiSky. Keine Kursoberfläche oder Darstellung gelieferter Materialien.</desc><rect x="0" y="0" width="960" height="600" rx="0" fill="#eee8f7"/><circle cx="790" cy="150" r="190" fill="#6346a5" opacity=".06"/><rect x="120" y="120" width="260" height="310" rx="15" fill="#fffdfa"/><text x="150" y="169" font-family="Arial,sans-serif" font-size="24" fill="#322249">ENTWURF</text><rect x="150" y="199" width="200" height="126" rx="8" fill="#eee8f7"/><path d="M172 290l37-48 38 28 39-60 39 80" stroke="#6346a5" stroke-width="4" stroke-linecap="round" fill="none"/><path d="M150 354h168M150 382h118" stroke="#6346a5" stroke-width="4" stroke-linecap="round" fill="none"/><rect x="475" y="147" width="286" height="200" rx="24" fill="#6346a5"/><text x="506" y="198" font-family="Arial,sans-serif" font-size="21" fill="#fffdfa">Was ist hilfreich?</text><text x="506" y="239" font-family="Arial,sans-serif" font-size="21" fill="#fffdfa">Was fehlt noch?</text><text x="506" y="280" font-family="Arial,sans-serif" font-size="21" fill="#fffdfa">Was ist klar?</text><path d="M517 347l-12 40 58-40" stroke="#6346a5" stroke-width="4" stroke-linecap="round" fill="none"/><path d="M413 140l-22 280" stroke="#b6784e" stroke-width="10" stroke-linecap="round" fill="none"/><text x="60" y="530" font-family="Arial,sans-serif" font-size="23" fill="#322249">Entwerfen, prüfen und weiterentwickeln</text><text x="60" y="565" font-family="Arial,sans-serif" font-size="12" fill="#322249">POKISKY · REDAKTIONELLE ILLUSTRATION</text></svg>
