<svg xmlns="http://www.w3.org/2000/svg" width="1200" height="720" viewBox="0 0 960 600" role="img" aria-labelledby="title desc"><title id="title">Von der Idee zum eigenen Content-Plan</title><desc id="desc">Redaktionelle Illustration von PokiSky. Keine Kursoberfläche oder Darstellung gelieferter Materialien.</desc><rect x="0" y="0" width="960" height="600" rx="0" fill="#eee8f7"/><circle cx="790" cy="150" r="190" fill="#6346a5" opacity=".06"/><rect x="120" y="115" width="260" height="300" rx="15" fill="#fffdfa"/><text x="150" y="157" font-family="Arial,sans-serif" font-size="24" fill="#322249">IDEE</text><rect x="150" y="185" width="200" height="128" rx="8" fill="#6346a5"/><path d="M177 280l38-51 36 35 47-64 28 80" stroke="#eee8f7" stroke-width="4" stroke-linecap="round" fill="none"/><path d="M150 340h180M150 368h128" stroke="#6346a5" stroke-width="4" stroke-linecap="round" fill="none"/><rect x="463" y="130" width="295" height="260" rx="15" fill="#fffdfa"/><text x="493" y="175" font-family="Arial,sans-serif" font-size="24" fill="#322249">PLAN</text><path d="M493 208h230" stroke="#6346a5" stroke-width="4" stroke-linecap="round" fill="none"/><rect x="493" y="234" width="43" height="29" rx="5" fill="#6346a5"/><rect x="549" y="234" width="43" height="29" rx="5" fill="#eee8f7"/><rect x="605" y="234" width="43" height="29" rx="5" fill="#eee8f7"/><rect x="661" y="234" width="43" height="29" rx="5" fill="#6346a5"/><rect x="493" y="276" width="43" height="29" rx="5" fill="#eee8f7"/><rect x="549" y="276" width="43" height="29" rx="5" fill="#eee8f7"/><rect x="605" y="276" width="43" height="29" rx="5" fill="#6346a5"/><rect x="661" y="276" width="43" height="29" rx="5" fill="#eee8f7"/><rect x="493" y="318" width="43" height="29" rx="5" fill="#eee8f7"/><rect x="549" y="318" width="43" height="29" rx="5" fill="#6346a5"/><rect x="605" y="318" width="43" height="29" rx="5" fill="#eee8f7"/><rect x="661" y="318" width="43" height="29" rx="5" fill="#eee8f7"/><path d="M384 270h57m-12-12 12 12-12 12" stroke="#6346a5" stroke-width="4" stroke-linecap="round" fill="none"/><text x="60" y="530" font-family="Arial,sans-serif" font-size="23" fill="#322249">Von der Idee zum eigenen Content-Plan</text><text x="60" y="565" font-family="Arial,sans-serif" font-size="12" fill="#322249">POKISKY · REDAKTIONELLE ILLUSTRATION</text></svg>
