<svg xmlns="http://www.w3.org/2000/svg" width="960" height="600" viewBox="0 0 960 600" role="img" aria-labelledby="title desc"><title id="title">Ein Thema, mehrere passende Beiträge</title><desc id="desc">Redaktionelle Illustration von PokiSky. Keine Kursoberfläche oder Darstellung gelieferter Materialien.</desc><rect x="0" y="0" width="960" height="600" rx="0" fill="#eee8f7"/><circle cx="790" cy="150" r="190" fill="#6346a5" opacity=".06"/><rect x="160" y="100" width="610" height="335" rx="15" fill="#fffdfa"/><text x="190" y="150" font-family="Arial,sans-serif" font-size="25" fill="#322249">REDAKTIONSPLAN</text><path d="M190 177h550" stroke="#6346a5" stroke-width="4" stroke-linecap="round" fill="none"/><text x="190" y="218" font-family="Arial,sans-serif" font-size="18" fill="#322249">MO</text><rect x="190" y="240" width="86" height="36" rx="6" fill="#6346a5"/><rect x="190" y="292" width="86" height="36" rx="6" fill="#eee8f7"/><rect x="190" y="344" width="86" height="36" rx="6" fill="#eee8f7"/><text x="301" y="218" font-family="Arial,sans-serif" font-size="18" fill="#322249">DI</text><rect x="301" y="240" width="86" height="36" rx="6" fill="#eee8f7"/><rect x="301" y="292" width="86" height="36" rx="6" fill="#eee8f7"/><rect x="301" y="344" width="86" height="36" rx="6" fill="#eee8f7"/><text x="412" y="218" font-family="Arial,sans-serif" font-size="18" fill="#322249">MI</text><rect x="412" y="240" width="86" height="36" rx="6" fill="#eee8f7"/><rect x="412" y="292" width="86" height="36" rx="6" fill="#eee8f7"/><rect x="412" y="344" width="86" height="36" rx="6" fill="#6346a5"/><text x="523" y="218" font-family="Arial,sans-serif" font-size="18" fill="#322249">DO</text><rect x="523" y="240" width="86" height="36" rx="6" fill="#eee8f7"/><rect x="523" y="292" width="86" height="36" rx="6" fill="#6346a5"/><rect x="523" y="344" width="86" height="36" rx="6" fill="#eee8f7"/><text x="634" y="218" font-family="Arial,sans-serif" font-size="18" fill="#322249">FR</text><rect x="634" y="240" width="86" height="36" rx="6" fill="#6346a5"/><rect x="634" y="292" width="86" height="36" rx="6" fill="#eee8f7"/><rect x="634" y="344" width="86" height="36" rx="6" fill="#eee8f7"/><path d="M740 100l-42 335" stroke="#b6784e" stroke-width="10" stroke-linecap="round" fill="none"/><text x="60" y="530" font-family="Arial,sans-serif" font-size="23" fill="#322249">Ein Thema, mehrere passende Beiträge</text><text x="60" y="565" font-family="Arial,sans-serif" font-size="12" fill="#322249">POKISKY · REDAKTIONELLE ILLUSTRATION</text></svg>
