<svg xmlns="http://www.w3.org/2000/svg" width="960" height="600" viewBox="0 0 960 600" role="img" aria-labelledby="title"><title id="title">Original editorial illustration: List equipment and suitability questions; not official product material</title><rect width="960" height="600" fill="#e5eee7"/><circle cx="890" cy="70" r="190" fill="#446656" opacity=".06"/><circle cx="80" cy="540" r="150" fill="#bf985c" opacity=".12"/><rect x="136" y="244" width="339" height="236" rx="39" fill="#446656"/><path d="M201 235V195Q201 164 234 164H375Q407 164 407 195V235" fill="none" stroke="#446656" stroke-width="15"/><path d="M173 307H440" stroke="#fffaf3" stroke-width="8" opacity=".4"/><path d="M245 344Q195 261 256 212Q332 152 408 248" stroke="#bf985c" stroke-width="13" fill="none"/><rect x="559" y="110" width="257" height="367" rx="19" fill="#fffaf3"/><path d="M601 170H773M646 237H773M646 304H754M646 371H773" stroke="#446656" stroke-width="9" opacity=".4" stroke-linecap="round"/><circle cx="607" cy="237" r="13" fill="none" stroke="#bf985c" stroke-width="6"/><circle cx="607" cy="304" r="13" fill="none" stroke="#bf985c" stroke-width="6"/><circle cx="607" cy="371" r="13" fill="none" stroke="#bf985c" stroke-width="6"/></svg>
