<svg xmlns="http://www.w3.org/2000/svg" width="960" height="600" viewBox="0 0 960 600" role="img" aria-labelledby="title"><title id="title">Original editorial illustration: video project preparation, image 2; not an official interface</title><rect width="960" height="600" fill="#eee6d9"/><circle cx="870" cy="90" r="190" fill="#66513c" opacity=".07"/><circle cx="70" cy="560" r="150" fill="#b28a4e" opacity=".12"/><path d="M185 299H775" fill="none" stroke="#b28a4e" stroke-width="8" stroke-dasharray="12 14"/><rect x="75" y="165" width="230" height="292" rx="19" fill="#fcfaf6"/><circle cx="190" cy="247" r="42" fill="#66513c"/><path d="M123 332H258M123 372H233" stroke="#66513c" stroke-width="7" opacity=".3" stroke-linecap="round"/><rect x="365" y="125" width="230" height="292" rx="19" fill="#fcfaf6"/><circle cx="480" cy="207" r="42" fill="#66513c"/><path d="M413 292H548M413 332H523" stroke="#66513c" stroke-width="7" opacity=".3" stroke-linecap="round"/><rect x="655" y="165" width="230" height="292" rx="19" fill="#fcfaf6"/><circle cx="770" cy="247" r="42" fill="#66513c"/><path d="M703 332H838M703 372H813" stroke="#66513c" stroke-width="7" opacity=".3" stroke-linecap="round"/><g stroke="white" stroke-width="7" fill="none" stroke-linecap="round"><path d="M181 219L195 209V273M466 195Q490 175 496 198Q501 211 464 232H497M747 229Q773 215 773 235Q772 246 756 247Q782 249 772 268Q762 278 748 267"/></g></svg>