<svg xmlns="http://www.w3.org/2000/svg" width="960" height="600" viewBox="0 0 960 600" role="img" aria-labelledby="title"><title id="title">Original editorial illustration: production project preparation, image 3; not an official interface</title><rect width="960" height="600" fill="#f0e5e1"/><circle cx="860" cy="100" r="170" fill="#74504c" opacity=".06"/><circle cx="70" cy="550" r="150" fill="#b88f51" opacity=".12"/><rect x="154" y="130" width="420" height="368" rx="22" fill="#fffaf3"/><path d="M154 207H574" stroke="#74504c" stroke-width="12"/><path d="M252 96V164M476 96V164" stroke="#b88f51" stroke-width="18" stroke-linecap="round"/><rect x="219" y="254" width="42" height="37" rx="5" fill="#74504c" opacity=".18"/><rect x="304" y="254" width="42" height="37" rx="5" fill="#74504c" opacity=".18"/><rect x="389" y="254" width="42" height="37" rx="5" fill="#74504c" opacity=".18"/><rect x="474" y="254" width="42" height="37" rx="5" fill="#74504c" opacity=".18"/><rect x="219" y="335" width="42" height="37" rx="5" fill="#74504c" opacity=".18"/><rect x="304" y="335" width="42" height="37" rx="5" fill="#74504c" opacity=".18"/><rect x="389" y="335" width="42" height="37" rx="5" fill="#74504c" opacity=".18"/><rect x="474" y="335" width="42" height="37" rx="5" fill="#74504c" opacity=".18"/><rect x="219" y="416" width="42" height="37" rx="5" fill="#74504c" opacity=".18"/><rect x="304" y="416" width="42" height="37" rx="5" fill="#74504c" opacity=".18"/><rect x="389" y="416" width="42" height="37" rx="5" fill="#74504c" opacity=".18"/><rect x="474" y="416" width="42" height="37" rx="5" fill="#74504c" opacity=".18"/><circle cx="495" cy="435" r="37" fill="none" stroke="#b88f51" stroke-width="9"/><circle cx="735" cy="328" r="99" fill="#74504c"/><circle cx="735" cy="328" r="77" fill="#fffaf3"/><path d="M735 274V328L774 353" stroke="#b88f51" stroke-width="12" fill="none" stroke-linecap="round"/></svg>